<?xml version="1.0" encoding="UTF-8" standalone="no"?>
<!-- Created with Inkscape (http://www.inkscape.org/) -->

<svg
   xmlns:dc="http://purl.org/dc/elements/1.1/"
   xmlns:cc="http://creativecommons.org/ns#"
   xmlns:rdf="http://www.w3.org/1999/02/22-rdf-syntax-ns#"
   xmlns:svg="http://www.w3.org/2000/svg"
   xmlns="http://www.w3.org/2000/svg"
   xmlns:sodipodi="http://sodipodi.sourceforge.net/DTD/sodipodi-0.dtd"
   xmlns:inkscape="http://www.inkscape.org/namespaces/inkscape"
   version="1.1"
   width="3004.3621"
   height="1164.3461"
   id="svg3004"
   xml:space="preserve"
   inkscape:version="0.48.5 r10040"
   sodipodi:docname="albatross-logo-cmyk.svg"><sodipodi:namedview
     pagecolor="#ffffff"
     bordercolor="#666666"
     borderopacity="1"
     objecttolerance="10"
     gridtolerance="10"
     guidetolerance="10"
     inkscape:pageopacity="0"
     inkscape:pageshadow="2"
     inkscape:window-width="640"
     inkscape:window-height="480"
     id="namedview3073"
     showgrid="false"
     fit-margin-top="0"
     fit-margin-left="0"
     fit-margin-right="0"
     fit-margin-bottom="0"
     inkscape:zoom="0.077419355"
     inkscape:cx="1541.3536"
     inkscape:cy="560.0029"
     inkscape:window-x="0"
     inkscape:window-y="27"
     inkscape:window-maximized="0"
     inkscape:current-layer="svg3004" /><metadata
     id="metadata3010"><rdf:RDF><cc:Work
         rdf:about=""><dc:format>image/svg+xml</dc:format><dc:type
           rdf:resource="http://purl.org/dc/dcmitype/StillImage" /><dc:title></dc:title></cc:Work></rdf:RDF></metadata><defs
     id="defs3008" /><path
     inkscape:connector-curvature="0"
     style="fill:#ffffff;fill-opacity:1;fill-rule:nonzero;stroke:none"
     id="path3018"
     d="m 1423.7517,1120.5952 -37.09,-134.16286 c 0,0 -14.1612,-65.0001 -9.5862,-105.0007 4.5868,-40.0005 22.8748,-157.498 22.8748,-157.498 0,0 0.051,-27.8145 -13.0735,-28.4391 -6.2513,-0.6245 -8.125,5.3131 -8.125,5.3131 l -13.4381,89.0614 -348.4375,-27.8115 c 0,0 -280.00068,-24.375 -415.00038,16.8746 -135.0026,41.2496 -405.62631,134.3751 -405.62631,134.3751 l 337.50051,-181.2486 c 0,0 123.1273,-82.5023 324.3761,-85.625 201.24888,-3.1256 440.62458,-5.6269 440.62458,-5.6269 0,0 108.7002,-4.9992 137.5008,-36.2502 17.0749,-18.548 65.4634,-103.7487 71.2486,-120.6233 5.313,-15.0008 36.2503,-41.8771 73.1251,-21.2492 21.8769,11.8752 38.1269,14.9979 59.3763,-48.7501 -12.4998,13.1242 -35.6258,46.724 -52.5004,33.7491 -16.25,-12.4998 -71.2515,-15.001 -92.5009,22.5014 -21.2493,37.4995 -49.9991,104.9977 -73.7496,123.1243 -23.7505,18.1237 -61.8745,25.6241 -126.8746,28.7499 -65.0001,3.1227 -460.00038,5.6239 -460.00038,5.6239 0,0 -128.1236,4.3747 -222.4981,46.2488 l -116.879,52.5004 c 0,0 -82.4992,39.376 -173.75104,93.1255 C 229.99866,873.30664 0,1004.556 0,1004.556 l 156.24896,-71.87306 c 0,0 22.49843,-11.2507 69.37492,-19.3757 46.87349,-8.1251 296.24794,-85.625 358.12534,-108.751 11.8723,-4.9993 97.5032,-28.7499 196.2525,-28.1222 98.7493,0.6245 373.88828,13.9968 579.57468,51.2482 -1.6615,11.663 -8.9498,80.6256 -8.9498,80.6256 0,0 -3.7502,25.3134 5.6238,48.1256 9.3771,22.8122 67.5013,164.16176 67.5013,164.16176" /><path
     inkscape:connector-curvature="0"
     style="fill:#ffffff;fill-opacity:1;fill-rule:nonzero;stroke:none"
     id="path3020"
     d="m 1601.25,631.43274 5.4147,-99.586 c 0,0 -1.3507,-15.4133 -4.0132,-18.2282 -2.6505,-2.812 0.4751,-4.85 0.4751,-4.85 0,0 8.4359,-4.8349 13.5875,-4.6855 5.1607,0.1614 5.3101,0 7.1867,3.287 1.8737,3.2751 4.6885,11.0894 4.8499,24.2137 0.1495,13.1244 -4.3747,89.5365 -4.3747,89.5365 l 378.7471,-24.6887 c 0,0 114.3749,-8.7496 190.6257,2.5011 0,0 61.8774,5.6239 131.2523,26.8733 69.372,21.2523 186.242,77.5028 186.242,77.5028 l 488.1285,220.6216 4.9904,9.3771 -108.7419,-43.7508 -291.2336,-53.7494 c 0,0 -178.1289,-27.5007 -283.1385,-32.5001 -104.9978,-4.9992 -259.9977,-17.4991 -313.747,-18.7511 -53.7525,-1.2491 -130.6249,-1.2491 -188.1245,3.1256 -57.4998,4.3749 -207.3002,28.3255 -218.1265,48.1256 -7.4138,13.5368 -66.2492,155.6244 -66.2492,155.6244 0,0 -29.1742,58.32446 -48.7501,84.16366 -19.5879,25.8363 -74.5865,88.7507 -74.5865,88.7507 0,0 75.4113,-107.5018 95.8359,-155.8396 20.4126,-48.32276 60.0007,-146.66266 60.0007,-146.66266 0,0 31.251,-83.336 32.5002,-90.8365 0,0 3.8996,-15.3625 3.4365,-23.1737 -0.4753,-7.8143 0.7768,-7.9636 1.8765,-8.7525 1.0877,-0.774 10.4618,-4.6856 10.4618,-4.6856 0,0 4.061,-2.5012 6.099,1.8736 2.026,4.3749 6.7145,13.4381 4.064,22.9766 -2.6625,9.5235 -13.7518,44.8355 -13.7518,44.8355 l 47.8117,-15.1504 c 0,0 66.1506,-14.7857 107.5019,-19.5341 53.1249,-6.09 135.6241,-8.5881 135.6241,-8.5881 0,0 100.865,-1.3269 148.7515,0.9352 64.3756,3.039 189.6993,9.4997 181.8731,9.6879 l 154.3784,12.189 c 0,0 36.307,2.038 62.1851,5.6239 24.653,3.4006 358.0208,65.0987 390.5029,76.3495 -53.3101,-22.9109 -332.5011,-144.1615 -332.5011,-144.1615 l -144.1526,-62.0866 c 0,0 -143.5639,-48.1257 -242.086,-44.9999 -98.3132,3.1107 -186.2509,7.5005 -186.2509,7.5005 l -312.0736,25.8362 c 0,0 -23.5892,3.6637 -22.5015,-16.25" /><path
     inkscape:connector-curvature="0"
     style="fill:#ffffff;fill-opacity:1;fill-rule:nonzero;stroke:none"
     id="path3022"
     d="m 458.84682,55.781643 c -1.2012,3.4484 -1.0488,3.5979 3.1496,3.5979 l 18.4494,0 c 4.3509,0 4.6497,-0.5977 3.299,-4.6498 l -8.0981,-24.44672 c -1.2013,-3.60088 -2.5519,-7.64988 -3.4514,-9.45176 l -0.2988,0 c -0.4513,0.75 -1.9513,4.35088 -3.6009,8.85113 l -9.4488,26.09925 z m 29.7001,13.3485 c -1.0518,-3.299 -1.6495,-3.7503 -6.1528,-3.7503 l -22.6478,0 c -3.7502,0 -4.6497,0.4513 -5.6986,3.6008 l -5.2503,15.748 c -2.2501,6.7505 -3.299,10.7995 -3.299,12.452 0,1.799 0.75,2.6984 4.3479,3.000297 l 4.9515,0.4482 c 1.0488,0.75 1.0488,3.1496 -0.3018,3.7503 -3.8997,-0.2989 -8.5494,-0.2989 -15.5986,-0.4513 -4.9486,0 -10.3483,0.3018 -14.4004,0.4513 -0.8994,-0.6007 -1.1982,-3.0003 -0.2988,-3.7503 l 4.9515,-0.4482 c 3.5979,-0.301897 6.8999,-1.951397 8.9976,-7.351197 2.6984,-6.8997 6.8999,-16.6504 13.199,-33.4502 l 15.2998,-40.49665 c 2.1008,-5.39975 3.0002,-8.2505 2.549,-10.6501299 3.6008,-1.04887 6.1498,-3.75025 7.7993,-5.6985 0.9025,0 1.9513,0.29875 2.2501,1.35063 1.9514,6.5979999 4.3509,13.4978699 6.6011,20.0958699 l 20.5501,60.29978 c 4.3508,12.9001 6.2992,15.1474 12.7478,15.900397 l 4.049,0.4482 c 1.0519,0.75 0.7501,3.1496 0,3.7503 -6.1497,-0.2989 -11.4001,-0.4513 -18.1505,-0.4513 -7.1987,0 -12.9002,0.3018 -17.2481,0.4513 -1.2013,-0.6007 -1.3507,-3.0003 -0.3018,-3.7503 l 4.3508,-0.4482 c 3.1496,-0.301897 5.2504,-1.201297 5.2504,-2.701397 0,-1.6495 -0.7531,-4.3509 -1.9513,-7.9488 l -6.5981,-20.4006" /><path
     inkscape:connector-curvature="0"
     style="fill:#ffffff;fill-opacity:1;fill-rule:nonzero;stroke:none"
     id="path3024"
     d="m 722.08962,27.432263 c 0,-15.748 -0.2987,-18.1476199 -9.7506,-18.9006199 l -3.7503,-0.29888 c -0.8993,-0.60062 -0.5886,-3.299 0.3019,-3.75025 8.3999,0.30188 13.4979,0.45126 19.4983,0.45126 5.851,0 10.9518,-0.14938 18.4493,-0.45126 0.8995,0.45126 1.2013,3.14963 0.3018,3.75025 l -3.6008,0.29888 c -8.8511,0.753 -9.15,3.1526199 -9.15,18.9006199 l 0,52.19848 c 0,9.4488 0.4513,13.3485 3.1497,16.1993 1.6495,1.6495 4.5002,3.4484 16.3516,3.4484 12.7477,0 15.8974,-0.5977 18.3,-1.9483 2.9971,-1.802 6.8997,-7.2017 9.897,-14.8486 0.9025,-0.753 3.7502,-0.1524 3.7502,0.8965 0,1.6525 -4.1985,16.952197 -6.2992,21.001397 -7.6499,-0.2989 -21.9008,-0.4513 -37.35,-0.4513 l -13.7996,0 c -6.2993,0 -11.0984,0.1524 -19.4983,0.4513 -0.8905,-0.4513 -1.2012,-2.8509 -0.3019,-3.7503 l 4.5004,-0.4482 c 8.7018,-0.902497 9.0005,-3.000297 9.0005,-18.751297 l 0,-53.99737" /><path
     inkscape:connector-curvature="0"
     style="fill:#ffffff;fill-opacity:1;fill-rule:nonzero;stroke:none"
     id="path3026"
     d="m 999.29052,79.179543 c 0,5.3997 0.2989,13.0496 3.14658,16.3486 2.8508,3.4515 7.3511,4.2015 11.8514,4.2015 13.3514,0 23.5502,-6.0004 23.5502,-20.9984 0,-11.8514 -6.0003,-25.65098 -29.8495,-25.65098 -8.10108,0 -8.69868,0.8995 -8.69868,3.89958 l 0,22.1997 z m 0,-34.79803 c 0,4.1985 0.1494,4.50025 7.79938,4.1985 15.2997,-0.59762 23.5502,-5.098 23.5502,-19.1995 0,-14.69612 -10.9519,-20.2482499 -22.352,-20.2482499 -3.299,0 -5.5491,0.30175 -6.8999,0.8994999 -1.50008,0.45113 -2.09768,1.20125 -2.09768,3.89963 l 0,30.45012 z m -12.3025,-19.9495 c 0,-11.09825 -0.6006,-13.94912 -7.3482,-14.5497499 l -4.7991,-0.44825 c -1.2012,-0.90237 -1.0519,-3.1495 0.1494,-3.75012 8.0981,-0.75013 18.3,-1.20138 32.24908,-1.20138 9.4488,0 18.4494,0.75013 25.1998,4.2015 6.4516,3.1496299 11.4001,9.1499999 11.4001,18.7482499 0,10.79951 -6.2991,16.35163 -15.2998,20.55013 0,1.5 1.1983,1.94825 2.8508,2.25012 8.0981,1.49713 20.0989,8.99753 20.0989,25.04733 0,17.4006 -12.9002,29.099597 -39.8989,29.099597 -4.3509,0 -11.70198,-0.4513 -18.00108,-0.4513 -6.601,0 -11.699,0.3018 -17.2512,0.4513 -0.8995,-0.4513 -1.1982,-2.8509 -0.2988,-3.7503 l 2.7013,-0.4482 c 7.9488,-1.350797 8.2477,-3.000297 8.2477,-18.751297 l 0,-56.99762" /><path
     inkscape:connector-curvature="0"
     style="fill:#ffffff;fill-opacity:1;fill-rule:nonzero;stroke:none"
     id="path3028"
     d="m 1271.8387,55.781643 c -1.2014,3.4484 -1.0519,3.5979 3.1495,3.5979 l 18.4524,0 c 4.3479,0 4.6467,-0.5977 3.299,-4.6498 l -8.101,-24.44672 c -1.2014,-3.60088 -2.549,-7.64988 -3.4485,-9.45176 l -0.3018,0 c -0.4512,0.75 -1.9513,4.35088 -3.6008,8.85113 l -9.4488,26.09925 z m 29.7,13.3485 c -1.0519,-3.299 -1.6495,-3.7503 -6.1497,-3.7503 l -22.6509,0 c -3.7502,0 -4.6496,0.4513 -5.6985,3.6008 l -5.2504,15.748 c -2.2501,6.7505 -3.302,10.7995 -3.302,12.452 0,1.799 0.753,2.6984 4.3509,3.000297 l 4.9515,0.4482 c 1.0489,0.75 1.0489,3.1496 -0.3017,3.7503 -3.8998,-0.2989 -8.5494,-0.2989 -15.5987,-0.4513 -4.9515,0 -10.3512,0.3018 -14.4003,0.4513 -0.8994,-0.6007 -1.1983,-3.0003 -0.2988,-3.7503 l 4.9485,-0.4482 c 3.6008,-0.301897 6.8999,-1.951397 9.0005,-7.351197 2.6984,-6.8997 6.8999,-16.6504 13.1991,-33.4502 l 15.2998,-40.49665 c 2.1007,-5.39975 3.0002,-8.2505 2.552,-10.6501299 3.5977,-1.04887 6.1467,-3.75025 7.7992,-5.6985 0.8995,0 1.9484,0.29875 2.2502,1.35063 1.9483,6.5979999 4.3478,13.4978699 6.601,20.0958699 l 20.5471,60.29978 c 4.3509,12.9001 6.3022,15.1474 12.7509,15.900397 l 4.049,0.4482 c 1.0518,0.75 0.7501,3.1496 0,3.7503 -6.1498,-0.2989 -11.3972,-0.4513 -18.1475,-0.4513 -7.2017,0 -12.9003,0.3018 -17.2512,0.4513 -1.2012,-0.6007 -1.3506,-3.0003 -0.3019,-3.7503 l 4.3509,-0.4482 c 3.1497,-0.301897 5.2504,-1.201297 5.2504,-2.701397 0,-1.6495 -0.75,-4.3509 -1.9484,-7.9488 l -6.601,-20.4006" /><path
     inkscape:connector-curvature="0"
     style="fill:#ffffff;fill-opacity:1;fill-rule:nonzero;stroke:none"
     id="path3030"
     d="m 1560.5891,81.429643 c 0,15.751 0.2988,17.9983 9.0005,18.751297 l 4.7991,0.4482 c 0.8995,0.6006 0.6007,3.299 -0.3017,3.7503 -8.5494,-0.2989 -13.6473,-0.4513 -19.6478,-0.4513 -6.0004,0 -11.2506,0.1524 -20.8519,0.4513 -0.8994,-0.4513 -1.1982,-3.0003 0,-3.7503 l 5.3998,-0.4482 c 8.5524,-0.752997 9.2994,-3.000297 9.2994,-18.751297 l 0,-67.047 c 0,-4.6497499 0,-4.7991299 -4.4973,-4.7991299 l -8.2505,0 c -6.4516,0 -14.6991,0.29875 -18.4523,3.7502499 -3.5979,3.299 -5.0981,6.598 -6.7475,10.34825 -1.2013,0.89938 -3.2991,0.15238 -3.8997,-1.04887 2.3995,-6.7505 4.6498,-16.3486199 5.6987,-22.34899992 0.4511,-0.29888 2.3995,-0.45125 2.8507,0 0.8994,4.79900002 5.851,4.64963002 12.7508,4.64963002 l 60.7478,0 c 8.1012,0 9.4519,-0.30175 11.699,-4.20150002 0.753,-0.29876 2.4025,-0.14938 2.7014,0.45125002 -1.6495,6.14987 -2.7014,18.2999999 -2.2501,22.7972499 -0.6006,1.20137 -3.1496,1.20137 -3.8996,0.30187 -0.4513,-3.75025 -1.5002,-9.29937 -3.7503,-10.94887 -3.4485,-2.549 -9.15,-3.7502499 -17.4005,-3.7502499 l -10.6501,0 c -4.4973,0 -4.3479,0.14937 -4.3479,5.1008699 l 0,66.74525" /><path
     inkscape:connector-curvature="0"
     style="fill:#ffffff;fill-opacity:1;fill-rule:nonzero;stroke:none"
     id="path3032"
     d="m 1817.8375,49.031273 c 0,2.69837 0,4.35087 0.4512,4.9485 0.4483,0.45127 2.6984,0.74997 10.3483,0.74997 5.3997,0 11.1012,-0.6006 15.4491,-3.8996 4.0521,-3.14662 7.5035,-8.4 7.5035,-18.59875 0,-11.84837 -7.351,-23.0991199 -24.0015,-23.0991199 -9.2994,0 -9.7506,0.60062 -9.7506,4.7991199 l 0,35.09988 z m -12.2996,-21.44963 c 0,-14.24787 -0.4483,-16.79687 -6.601,-17.54987 l -4.7992,-0.5977499 c -1.0488,-0.75 -1.0488,-3.1495 0.1495,-3.75013 8.3999,-0.75012 18.7511,-1.20137 33.4503,-1.20137 9.2994,0 18.1506,0.75012 25.0503,4.50037 7.1988,3.7502499 12.449,10.5006299 12.449,20.9982499 0,14.251 -11.2476,22.05025 -18.7481,25.0505 -0.7501,0.8994 0,2.3995 0.75,3.5978 11.9978,19.3488 19.9495,31.3496 30.1484,39.899 2.5519,2.250097 6.2991,3.899597 10.3512,4.201497 0.75,0.2987 0.8995,1.5 0.1494,2.0977 -1.3506,0.4511 -3.7502,0.753 -6.601,0.753 -12.7479,0 -20.3977,-3.7502 -31.0477,-18.900597 -3.8997,-5.5491 -10.0525,-15.9004 -14.7021,-22.6479 -2.2502,-3.302 -4.6498,-4.8021 -10.6502,-4.8021 -6.7504,0 -7.0492,0.1495 -7.0492,3.302 l 0,18.8976 c 0,15.751 0.2988,17.55 9.0006,18.751297 l 3.1495,0.4482 c 0.8995,0.75 0.6008,3.299 -0.2988,3.7503 -6.7504,-0.2989 -11.8513,-0.4513 -17.8517,-0.4513 -6.2993,0 -11.699,0.1524 -18.7483,0.4513 -0.9023,-0.4513 -1.2012,-2.6984 -0.3017,-3.7503 l 3.7502,-0.4482 c 8.7018,-1.051897 9.0005,-3.000297 9.0005,-18.751297 l 0,-53.848" /><path
     inkscape:connector-curvature="0"
     style="fill:#ffffff;fill-opacity:1;fill-rule:nonzero;stroke:none"
     id="path3034"
     d="m 2156.9875,58.629443 c 0,-24.74855 -10.9519,-51.4455499 -39.6002,-51.4455499 -15.5986,0 -35.8498,10.6501199 -35.8498,43.4998699 0,22.19658 10.7995,50.997277 40.3501,50.997277 18.0012,0 35.0999,-13.500897 35.0999,-43.051597 z m -90.451,-3.1497 c 0,-29.99885 22.5015,-52.9454699 53.3999,-52.9454699 34.6516,0 52.0521,25.0473699 52.0521,51.4454999 0,30.30077 -23.1021,52.350867 -52.0521,52.350867 -33.298,0 -53.3999,-23.849097 -53.3999,-50.850897" /><path
     inkscape:connector-curvature="0"
     style="fill:#ffffff;fill-opacity:1;fill-rule:nonzero;stroke:none"
     id="path3036"
     d="m 2394.4329,106.33064 c -12.6104,0 -20.5592,-3.9026 -23.3979,-5.5521 -1.793,-3.298997 -3.7354,-13.949097 -4.0341,-20.998397 0.747,-1.0489 2.9882,-1.3506 3.5858,-0.4513 2.2412,7.65 8.3969,22.352197 25.7885,22.352197 12.6104,0 18.7662,-8.250697 18.7662,-17.251197 0,-6.598 -1.3448,-13.9491 -12.3115,-20.9983 l -14.2541,-9.3024 c -7.5003,-4.9485 -16.1962,-13.49788 -16.1962,-25.7975 0,-14.24788 11.1162,-25.7973799 30.5996,-25.7973799 4.6616,0 10.0704,0.89938 13.955,1.94825 1.9424,0.60063 4.064,0.9025 5.2594,0.9025 1.3446,3.59788 2.6894,11.9977499 2.6894,18.2969999 -0.5976,0.89938 -2.9883,1.35063 -3.7353,0.45125 -1.9722,-7.19875 -6.0063,-16.9493699 -20.4097,-16.9493699 -14.7021,0 -17.8398,9.7506199 -17.8398,16.6504999 0,8.69875 7.2017,14.998 12.7299,18.44937 l 12.0128,7.4975 c 9.4428,5.84798 18.7362,14.54978 18.7362,28.79758 0,16.5011 -12.431,27.751797 -31.9442,27.751797" /><path
     inkscape:connector-curvature="0"
     style="fill:#ffffff;fill-opacity:1;fill-rule:nonzero;stroke:none"
     id="path3038"
     d="m 2649.7479,106.33064 c -12.6104,0 -20.5592,-3.9026 -23.3979,-5.5521 -1.8229,-3.298997 -3.7653,-13.949097 -4.064,-20.998397 0.747,-1.0489 2.9882,-1.3506 3.5859,-0.4513 2.2709,7.65 8.4268,22.352197 25.8183,22.352197 12.6104,0 18.7363,-8.250697 18.7363,-17.251197 0,-6.598 -1.3448,-13.9491 -12.2816,-20.9983 l -14.2539,-9.3024 c -7.5005,-4.9485 -16.1963,-13.49788 -16.1963,-25.7975 0,-14.24788 11.0863,-25.7973799 30.5995,-25.7973799 4.6318,0 10.0405,0.89938 13.9552,1.94825 1.9422,0.60063 4.034,0.9025 5.2293,0.9025 1.3447,3.59788 2.7193,11.9977499 2.7193,18.2969999 -0.5976,0.89938 -3.0181,1.35063 -3.7651,0.45125 -1.9424,-7.19875 -6.0064,-16.9493699 -20.4098,-16.9493699 -14.6722,0 -17.8397,9.7506199 -17.8397,16.6504999 0,8.69875 7.2016,14.998 12.7597,18.44937 l 11.9829,7.4975 c 9.4727,5.84798 18.7661,14.54978 18.7661,28.79758 0,16.5011 -12.4609,27.751797 -31.9442,27.751797" /></svg>