<?xml version="1.0" encoding="UTF-8" standalone="no"?>
<!-- Created with Inkscape (http://www.inkscape.org/) -->

<svg
   xmlns:dc="http://purl.org/dc/elements/1.1/"
   xmlns:cc="http://creativecommons.org/ns#"
   xmlns:rdf="http://www.w3.org/1999/02/22-rdf-syntax-ns#"
   xmlns:svg="http://www.w3.org/2000/svg"
   xmlns="http://www.w3.org/2000/svg"
   version="1.1"
   width="4383.75"
   height="3100"
   id="svg3004"
   xml:space="preserve"><metadata
     id="metadata3010"><rdf:RDF><cc:Work
         rdf:about=""><dc:format>image/svg+xml</dc:format><dc:type
           rdf:resource="http://purl.org/dc/dcmitype/StillImage" /><dc:title></dc:title></cc:Work></rdf:RDF></metadata><defs
     id="defs3008" /><g
     transform="matrix(1.25,0,0,-1.25,0,3100)"
     id="g3012"><path
       d="m 0,0 3506.9955,0 0,2479.9981 L 0,2479.9981 0,0 z"
       id="path3016"
       style="fill:#151516;fill-opacity:1;fill-rule:nonzero;stroke:none" /><path
       d="m 1659.4185,826.99831 -29.672,107.33032 c 0,0 -11.329,52.00012 -7.669,84.00057 3.6695,32.0004 18.2999,125.9984 18.2999,125.9984 0,0 0.041,22.2516 -10.4588,22.7513 -5.0011,0.4996 -6.5,-4.2505 -6.5,-4.2505 l -10.7505,-71.2491 -278.75,22.2492 c 0,0 -224.0006,19.5 -332.0003,-13.4997 C 893.91571,1067.3291 677.41671,992.82876 677.41671,992.82876 l 270.0004,144.99884 c 0,0 98.50189,66.0018 259.50089,68.5 160.9991,2.5005 352.4997,4.5015 352.4997,4.5015 0,0 86.9601,3.9994 110.0006,29.0002 13.6599,14.8384 52.3707,82.9989 56.9989,96.4986 4.2504,12.0007 29.0002,33.5017 58.5001,16.9994 17.5015,-9.5002 30.5015,-11.9983 47.501,39.0001 -9.9998,-10.4994 -28.5006,-37.3792 -42.0003,-26.9993 -13,9.9998 -57.0012,12.0008 -74.0007,-18.0011 -16.9995,-29.9996 -39.9993,-83.9982 -58.9997,-98.4995 -19.0004,-14.4989 -49.4996,-20.4993 -101.4997,-22.9999 -52.0001,-2.4982 -368.0003,-4.4991 -368.0003,-4.4991 0,0 -102.4989,-3.4998 -177.9985,-36.9991 l -93.50316,-42.0003 c 0,0 -65.99941,-31.5008 -139.00085,-74.5004 C 704.41603,1024.8292 520.4171,919.8297 520.4171,919.8297 l 124.99917,57.49848 c 0,0 17.99875,9.00057 55.49994,15.50058 37.49879,6.50002 236.99831,68.49994 286.50026,87.00074 9.49781,3.9995 78.00253,22.9999 157.00203,22.4978 78.9994,-0.4996 299.1106,-11.1975 463.6597,-40.9986 -1.3292,-9.3304 -7.1598,-64.50048 -7.1598,-64.50048 0,0 -3.0002,-20.25069 4.499,-38.50045 7.5017,-18.24977 54.0011,-131.32946 54.0011,-131.32946"
       id="path3018"
       style="fill:#ffffff;fill-opacity:1;fill-rule:nonzero;stroke:none" /><path
       d="m 1801.4171,1218.3283 4.3318,79.6688 c 0,0 -1.0806,12.3307 -3.2106,14.5826 -2.1204,2.2496 0.3801,3.88 0.3801,3.88 0,0 6.7487,3.8679 10.87,3.7484 4.1286,-0.1291 4.2481,0 5.7494,-2.6296 1.4989,-2.6201 3.7508,-8.8715 3.8799,-19.371 0.1196,-10.4995 -3.4998,-71.6292 -3.4998,-71.6292 l 302.9977,19.751 c 0,0 91.4999,6.9997 152.5006,-2.0009 0,0 49.5019,-4.4991 105.0018,-21.4986 55.4976,-17.0019 148.9936,-62.0023 148.9936,-62.0023 l 390.5028,-176.49729 3.9923,-7.50167 -86.9935,35.00066 -232.9869,42.9995 c 0,0 -142.5031,22.0006 -226.5108,26.0001 -83.9982,3.9994 -207.9981,13.9993 -250.9976,15.0009 -43.002,0.9993 -104.4999,0.9993 -150.4996,-2.5005 -45.9998,-3.4999 -165.8401,-22.6604 -174.5012,-38.5005 -5.931,-10.8294 -52.9993,-124.49952 -52.9993,-124.49952 0,0 -23.3394,-46.65954 -39.0001,-67.33097 -15.6703,-20.66904 -59.6692,-71.00052 -59.6692,-71.00052 0,0 60.329,86.00147 76.6687,124.67165 16.3301,38.65824 48.0006,117.33016 48.0006,117.33016 0,0 25.0008,66.6688 26.0001,72.6692 0,0 3.1197,12.29 2.7492,18.539 -0.3802,6.2514 0.6215,6.3709 1.5012,7.002 0.8702,0.6192 8.3695,3.7485 8.3695,3.7485 0,0 3.2488,2.0009 4.8792,-1.4989 1.6208,-3.4999 5.3716,-10.7505 3.2512,-18.3813 -2.13,-7.6188 -11.0015,-35.8684 -11.0015,-35.8684 l 38.2494,12.1203 c 0,0 52.9205,11.8286 86.0015,15.6273 42.4999,4.872 108.4993,6.8705 108.4993,6.8705 0,0 80.692,1.0615 119.0012,-0.7482 51.5005,-2.4312 151.7594,-7.5997 145.4985,-7.7503 l 123.5027,-9.7512 c 0,0 29.0456,-1.6304 49.7481,-4.4991 19.7224,-2.7205 286.4166,-52.079 312.4023,-61.0796 -42.6481,18.3287 -266.0009,115.3292 -266.0009,115.3292 l -115.3221,49.6693 c 0,0 -114.8511,38.5005 -193.6688,35.9999 -78.6505,-2.4886 -149.0007,-6.0004 -149.0007,-6.0004 l -249.6589,-20.669 c 0,0 -18.8713,-2.9309 -18.0012,13"
       id="path3020"
       style="fill:#ffffff;fill-opacity:1;fill-rule:nonzero;stroke:none" /><path
       d="m 887.49458,1678.8492 c -0.96101,-2.7587 -0.83909,-2.8783 2.51969,-2.8783 l 14.7595,0 c 3.4807,0 3.71976,0.4781 2.63921,3.7198 l -6.4785,19.5574 c -0.96102,2.8807 -2.04156,6.1199 -2.76113,7.5614 l -0.23906,0 c -0.36098,-0.6 -1.56105,-3.4807 -2.88066,-7.0809 l -7.55905,-20.8794 z m 23.76008,-10.6788 c -0.84149,2.6392 -1.31961,3.0002 -4.92223,3.0002 l -18.11828,0 c -3.00019,0 -3.71976,-0.361 -4.55885,-2.8806 l -4.20027,-12.5984 c -1.80011,-5.4004 -2.63921,-8.6396 -2.63921,-9.9616 0,-1.4392 0.60004,-2.1587 3.47831,-2.4002 l 3.96121,-0.3586 c 0.83909,-0.6 0.83909,-2.5197 -0.24145,-3.0002 -3.11972,0.2391 -6.83948,0.2391 -12.47888,0.361 -3.95882,0 -8.27862,-0.2414 -11.52026,-0.361 -0.71957,0.4805 -0.95862,2.4002 -0.23906,3.0002 l 3.96121,0.3586 c 2.87827,0.2415 5.51987,1.5611 7.19807,5.8809 2.1587,5.5198 5.51987,13.3203 10.55923,26.7602 l 12.23982,32.3973 c 1.68059,4.3198 2.40016,6.6004 2.03918,8.5201 2.88066,0.8391 4.91983,3.0002 6.23944,4.5588 0.72196,0 1.56105,-0.239 1.80011,-1.0805 1.56106,-5.2784 3.4807,-10.7983 5.28082,-16.0767 l 16.44008,-48.2398 c 3.4807,-10.3201 5.03937,-12.1179 10.19826,-12.7203 l 3.23925,-0.3586 c 0.84149,-0.6 0.60004,-2.5197 0.002,-3.0002 -4.91983,0.2391 -9.1201,0.361 -14.52044,0.361 -5.75894,0 -10.32018,-0.2414 -13.79849,-0.361 -0.96102,0.4805 -1.08055,2.4002 -0.24145,3.0002 l 3.4807,0.3586 c 2.51968,0.2415 4.20027,0.961 4.20027,2.1611 0,1.3196 -0.60243,3.4807 -1.56106,6.359 l -5.27842,16.3205"
       id="path3022"
       style="fill:#ffffff;fill-opacity:1;fill-rule:nonzero;stroke:none" /><path
       d="m 1098.0888,1701.5287 c 0,12.5984 -0.239,14.5181 -7.8005,15.1205 l -3.0002,0.2391 c -0.7195,0.4805 -0.4709,2.6392 0.2415,3.0002 6.7199,-0.2415 10.7983,-0.361 15.5986,-0.361 4.6808,0 8.7615,0.1195 14.7595,0.361 0.7196,-0.361 0.961,-2.5197 0.2414,-3.0002 l -2.8806,-0.2391 c -7.0809,-0.6024 -7.32,-2.5221 -7.32,-15.1205 l 0,-41.7588 c 0,-7.559 0.361,-10.6788 2.5197,-12.9594 1.3196,-1.3196 3.6002,-2.7587 13.0813,-2.7587 10.1982,0 12.7179,0.4781 14.64,1.5586 2.3977,1.4416 5.5198,5.7614 7.9176,11.8789 0.722,0.6024 3.0002,0.1219 3.0002,-0.7172 0,-1.322 -3.3588,-13.5618 -5.0394,-16.8011 -6.1199,0.2391 -17.5206,0.361 -29.88,0.361 l -11.0397,0 c -5.0394,0 -8.8787,-0.1219 -15.5986,-0.361 -0.7124,0.361 -0.961,2.2807 -0.2415,3.0002 l 3.6003,0.3586 c 6.9614,0.722 7.2004,2.4002 7.2004,15.001 l 0,43.1979"
       id="path3024"
       style="fill:#ffffff;fill-opacity:1;fill-rule:nonzero;stroke:none" /><path
       d="m 1319.8495,1660.1309 c 0,-4.3198 0.2391,-10.4397 2.5173,-13.0789 2.2806,-2.7612 5.8809,-3.3612 9.4811,-3.3612 10.6811,0 18.8402,4.8003 18.8402,16.7987 0,9.4811 -4.8003,20.5208 -23.8796,20.5208 -6.4809,0 -6.959,-0.7196 -6.959,-3.1197 l 0,-17.7597 z m 0,27.8384 c 0,-3.3588 0.1195,-3.6002 6.2395,-3.3588 12.2398,0.4781 18.8402,4.0784 18.8402,15.3596 0,11.7569 -8.7615,16.1986 -17.8816,16.1986 -2.6392,0 -4.4393,-0.2414 -5.5199,-0.7196 -1.2001,-0.3609 -1.6782,-0.961 -1.6782,-3.1197 l 0,-24.3601 z m -9.842,15.9596 c 0,8.8786 -0.4805,11.1593 -5.8785,11.6398 l -3.8393,0.3586 c -0.961,0.7219 -0.8415,2.5196 0.1195,3.0001 6.4785,0.6001 14.64,0.9611 25.7993,0.9611 7.559,0 14.7595,-0.6001 20.1598,-3.3612 5.1613,-2.5197 9.1201,-7.32 9.1201,-14.9986 0,-8.6396 -5.0393,-13.0813 -12.2398,-16.4401 0,-1.2 0.9586,-1.5586 2.2806,-1.8001 6.4785,-1.1977 16.0791,-7.198 16.0791,-20.0379 0,-13.9204 -10.3201,-23.2796 -31.9191,-23.2796 -3.4807,0 -9.3616,0.361 -14.4009,0.361 -5.2808,0 -9.3592,-0.2414 -13.8009,-0.361 -0.7196,0.361 -0.9586,2.2807 -0.2391,3.0002 l 2.1611,0.3586 c 6.359,1.0806 6.5981,2.4002 6.5981,15.001 l 0,45.5981"
       id="path3026"
       style="fill:#ffffff;fill-opacity:1;fill-rule:nonzero;stroke:none" /><path
       d="m 1537.8881,1678.8492 c -0.9611,-2.7587 -0.8415,-2.8783 2.5196,-2.8783 l 14.7619,0 c 3.4783,0 3.7174,0.4781 2.6392,3.7198 l -6.4808,19.5574 c -0.9611,2.8807 -2.0392,6.1199 -2.7588,7.5614 l -0.2414,0 c -0.361,-0.6 -1.5611,-3.4807 -2.8807,-7.0809 l -7.559,-20.8794 z m 23.76,-10.6788 c -0.8415,2.6392 -1.3196,3.0002 -4.9198,3.0002 l -18.1207,0 c -3.0002,0 -3.7197,-0.361 -4.5588,-2.8806 l -4.2003,-12.5984 c -1.8001,-5.4004 -2.6416,-8.6396 -2.6416,-9.9616 0,-1.4392 0.6024,-2.1587 3.4807,-2.4002 l 3.9612,-0.3586 c 0.8391,-0.6 0.8391,-2.5197 -0.2414,-3.0002 -3.1198,0.2391 -6.8395,0.2391 -12.4789,0.361 -3.9612,0 -8.281,-0.2414 -11.5203,-0.361 -0.7195,0.4805 -0.9586,2.4002 -0.239,3.0002 l 3.9588,0.3586 c 2.8806,0.2415 5.5199,1.5611 7.2004,5.8809 2.1587,5.5198 5.5199,13.3203 10.5593,26.7602 l 12.2398,32.3973 c 1.6806,4.3198 2.4002,6.6004 2.0416,8.5201 2.8782,0.8391 4.9174,3.0002 6.2394,4.5588 0.7196,0 1.5587,-0.239 1.8001,-1.0805 1.5587,-5.2784 3.4783,-10.7983 5.2808,-16.0767 l 16.4377,-48.2398 c 3.4807,-10.3201 5.0418,-12.1179 10.2007,-12.7203 l 3.2392,-0.3586 c 0.8415,-0.6 0.6001,-2.5197 0,-3.0002 -4.9198,0.2391 -9.1177,0.361 -14.518,0.361 -5.7613,0 -10.3202,-0.2414 -13.8009,-0.361 -0.961,0.4805 -1.0805,2.4002 -0.2415,3.0002 l 3.4807,0.3586 c 2.5197,0.2415 4.2003,0.961 4.2003,2.1611 0,1.3196 -0.6,3.4807 -1.5587,6.359 l -5.2808,16.3205"
       id="path3028"
       style="fill:#ffffff;fill-opacity:1;fill-rule:nonzero;stroke:none" /><path
       d="m 1768.8884,1658.3308 c 0,-12.6008 0.239,-14.3986 7.2004,-15.001 l 3.8393,-0.3586 c 0.7196,-0.4805 0.4805,-2.6392 -0.2414,-3.0002 -6.8395,0.2391 -10.9178,0.361 -15.7182,0.361 -4.8003,0 -9.0005,-0.1219 -16.6815,-0.361 -0.7196,0.361 -0.9586,2.4002 0,3.0002 l 4.3198,0.3586 c 6.8419,0.6024 7.4395,2.4002 7.4395,15.001 l 0,53.6376 c 0,3.7198 0,3.8393 -3.5978,3.8393 l -6.6004,0 c -5.1613,0 -11.7593,-0.239 -14.7619,-3.0002 -2.8783,-2.6392 -4.0784,-5.2784 -5.398,-8.2786 -0.961,-0.7195 -2.6392,-0.1219 -3.1197,0.8391 1.9196,5.4004 3.7198,13.0789 4.5589,17.8792 0.3609,0.2391 1.9196,0.361 2.2806,0 0.7195,-3.8392 4.6808,-3.7197 10.2006,-3.7197 l 48.5983,0 c 6.4809,0 7.5615,0.2414 9.3592,3.3612 0.6024,0.239 1.922,0.1195 2.1611,-0.361 -1.3196,-4.9199 -2.1611,-14.64 -1.8001,-18.2378 -0.4805,-0.9611 -2.5197,-0.9611 -3.1197,-0.2415 -0.361,3.0002 -1.2001,7.4395 -3.0002,8.7591 -2.7588,2.0392 -7.32,3.0002 -13.9204,3.0002 l -8.5201,0 c -3.5978,0 -3.4783,-0.1195 -3.4783,-4.0807 l 0,-53.3962"
       id="path3030"
       style="fill:#ffffff;fill-opacity:1;fill-rule:nonzero;stroke:none" /><path
       d="m 1974.6871,1684.2495 c 0,-2.1587 0,-3.4807 0.361,-3.9588 0.3586,-0.361 2.1587,-0.6 8.2786,-0.6 4.3198,0 8.881,0.4805 12.3593,3.1197 3.2417,2.5173 6.0028,6.72 6.0028,14.879 0,9.4787 -5.8808,18.4793 -19.2012,18.4793 -7.4395,0 -7.8005,-0.4805 -7.8005,-3.8393 l 0,-28.0799 z m -9.8397,17.1597 c 0,11.3983 -0.3586,13.4375 -5.2808,14.0399 l -3.8393,0.4782 c -0.8391,0.6 -0.8391,2.5196 0.1196,3.0001 6.7199,0.6001 15.0009,0.9611 26.7602,0.9611 7.4395,0 14.5205,-0.6001 20.0403,-3.6003 5.759,-3.0002 9.9592,-8.4005 9.9592,-16.7986 0,-11.4008 -8.9981,-17.6402 -14.9985,-20.0404 -0.6001,-0.7195 0,-1.9196 0.6,-2.8782 9.5982,-15.4791 15.9596,-25.0797 24.1187,-31.9192 2.0415,-1.8001 5.0393,-3.1197 8.281,-3.3612 0.6,-0.239 0.7196,-1.2 0.1195,-1.6782 -1.0805,-0.3609 -3.0002,-0.6024 -5.2808,-0.6024 -10.1983,0 -16.3182,3.0002 -24.8382,15.1205 -3.1197,4.4393 -8.042,12.7203 -11.7617,18.1183 -1.8001,2.6416 -3.7198,3.8417 -8.5201,3.8417 -5.4003,0 -5.6394,-0.1196 -5.6394,-2.6416 l 0,-15.1181 c 0,-12.6008 0.2391,-14.04 7.2005,-15.001 l 2.5196,-0.3586 c 0.7196,-0.6 0.4806,-2.6392 -0.239,-3.0002 -5.4004,0.2391 -9.4811,0.361 -14.2814,0.361 -5.0394,0 -9.3592,-0.1219 -14.9986,-0.361 -0.7219,0.361 -0.961,2.1587 -0.2414,3.0002 l 3.0002,0.3586 c 6.9614,0.8415 7.2004,2.4002 7.2004,15.001 l 0,43.0784"
       id="path3032"
       style="fill:#ffffff;fill-opacity:1;fill-rule:nonzero;stroke:none" /><path
       d="m 2246.0071,1676.571 c 0,19.7988 -8.7615,41.1564 -31.6801,41.1564 -12.4789,0 -28.6799,-8.5201 -28.6799,-34.7999 0,-17.7573 8.6396,-40.7978 32.2801,-40.7978 14.401,0 28.0799,10.8007 28.0799,34.4413 z m -72.3608,2.5197 c 0,23.9991 18.0012,42.3564 42.7199,42.3564 27.7213,0 41.6417,-20.0379 41.6417,-41.1564 0,-24.2406 -18.4817,-41.8807 -41.6417,-41.8807 -26.6384,0 -42.7199,19.0793 -42.7199,40.6807"
       id="path3034"
       style="fill:#ffffff;fill-opacity:1;fill-rule:nonzero;stroke:none" /><path
       d="m 2435.9634,1638.41 c -10.0883,0 -16.4473,3.1221 -18.7183,4.4417 -1.4344,2.6392 -2.9883,11.1593 -3.2273,16.7987 0.5976,0.8391 2.3906,1.0805 2.8687,0.361 1.7929,-6.12 6.7175,-17.8817 20.6308,-17.8817 10.0883,0 15.0129,6.6005 15.0129,13.8009 0,5.2784 -1.0758,11.1593 -9.8492,16.7987 l -11.4032,7.4419 c -6.0003,3.9588 -12.957,10.7983 -12.957,20.638 0,11.3983 8.893,20.6379 24.4797,20.6379 3.7293,0 8.0563,-0.7195 11.164,-1.5586 1.5539,-0.4805 3.2512,-0.722 4.2075,-0.722 1.0757,-2.8783 2.1515,-9.5982 2.1515,-14.6376 -0.4781,-0.7195 -2.3906,-1.0805 -2.9882,-0.361 -1.5778,5.759 -4.8051,13.5595 -16.3278,13.5595 -11.7617,0 -14.2718,-7.8005 -14.2718,-13.3204 0,-6.959 5.7613,-11.9984 10.1839,-14.7595 l 9.6102,-5.998 c 7.5543,-4.6784 14.989,-11.6398 14.989,-23.0381 0,-13.2008 -9.9448,-22.2014 -25.5554,-22.2014"
       id="path3036"
       style="fill:#ffffff;fill-opacity:1;fill-rule:nonzero;stroke:none" /><path
       d="m 2640.2154,1638.41 c -10.0883,0 -16.4473,3.1221 -18.7183,4.4417 -1.4583,2.6392 -3.0122,11.1593 -3.2512,16.7987 0.5976,0.8391 2.3906,1.0805 2.8687,0.361 1.8168,-6.12 6.7415,-17.8817 20.6547,-17.8817 10.0883,0 14.989,6.6005 14.989,13.8009 0,5.2784 -1.0758,11.1593 -9.8253,16.7987 l -11.4031,7.4419 c -6.0004,3.9588 -12.957,10.7983 -12.957,20.638 0,11.3983 8.869,20.6379 24.4796,20.6379 3.7054,0 8.0324,-0.7195 11.1641,-1.5586 1.5538,-0.4805 3.2272,-0.722 4.1835,-0.722 1.0757,-2.8783 2.1754,-9.5982 2.1754,-14.6376 -0.4781,-0.7195 -2.4145,-1.0805 -3.0121,-0.361 -1.5539,5.759 -4.8051,13.5595 -16.3278,13.5595 -11.7378,0 -14.2718,-7.8005 -14.2718,-13.3204 0,-6.959 5.7613,-11.9984 10.2078,-14.7595 l 9.5863,-5.998 c 7.5782,-4.6784 15.0129,-11.6398 15.0129,-23.0381 0,-13.2008 -9.9687,-22.2014 -25.5554,-22.2014"
       id="path3038"
       style="fill:#ffffff;fill-opacity:1;fill-rule:nonzero;stroke:none" /></g></svg>